<mxfile host="app.diagrams.net" agent="Mozilla/5.0 (Windows NT 10.0; Win64; x64) AppleWebKit/537.36 (KHTML, like Gecko) Chrome/134.0.0.0 Safari/537.36" version="26.2.1">
  <diagram name="Pagina-1" id="p9aCoLbDay4usnOSdaTN">
    <mxGraphModel dx="1428" dy="743" grid="1" gridSize="10" guides="1" tooltips="1" connect="1" arrows="1" fold="1" page="1" pageScale="1" pageWidth="2339" pageHeight="3300" math="0" shadow="0">
      <root>
        <mxCell id="0" />
        <mxCell id="1" parent="0" />
        <mxCell id="N2er4lR7cpUkSej4eWRc-2" value="&lt;font style=&quot;&quot;&gt;&lt;span style=&quot;font-size: 22px; font-family: &amp;quot;Comic Sans MS&amp;quot;;&quot;&gt;C&lt;/span&gt;&lt;span style=&quot;font-size: 22px; font-family: &amp;quot;Comic Sans MS&amp;quot;;&quot;&gt;&lt;sub&gt;root&lt;/sub&gt;&lt;/span&gt;&lt;span style=&quot;font-size: 22px; font-family: &amp;quot;Comic Sans MS&amp;quot;;&quot;&gt;&amp;nbsp;,&lt;/span&gt;&lt;sub style=&quot;font-size: 22px; font-family: &amp;quot;Comic Sans MS&amp;quot;;&quot;&gt;&amp;nbsp;&lt;/sub&gt;&lt;span style=&quot;font-family: &amp;quot;Comic Sans MS&amp;quot;;&quot;&gt;&lt;span style=&quot;font-size: 22px;&quot;&gt;{&lt;/span&gt;&lt;/span&gt;&lt;span style=&quot;font-family: &amp;quot;Comic Sans MS&amp;quot;; font-size: 22px;&quot;&gt;π&lt;/span&gt;&lt;span style=&quot;font-family: &amp;quot;Comic Sans MS&amp;quot;; font-size: 15.2778px;&quot;&gt;&lt;sub&gt;C1&lt;/sub&gt;&lt;/span&gt;&lt;span style=&quot;font-size: 22px; font-family: &amp;quot;Comic Sans MS&amp;quot;;&quot;&gt;,&amp;nbsp;&lt;/span&gt;&lt;span style=&quot;font-family: &amp;quot;Comic Sans MS&amp;quot;; font-size: 22px;&quot;&gt;π&lt;/span&gt;&lt;span style=&quot;font-family: &amp;quot;Comic Sans MS&amp;quot;; font-size: 15.2778px;&quot;&gt;&lt;sub&gt;C2&lt;/sub&gt;&lt;/span&gt;&lt;span style=&quot;font-size: 22px; font-family: &amp;quot;Comic Sans MS&amp;quot;;&quot;&gt;,&amp;nbsp;&lt;/span&gt;&lt;span style=&quot;font-family: &amp;quot;Comic Sans MS&amp;quot;; font-size: 22px;&quot;&gt;π&lt;/span&gt;&lt;span style=&quot;font-family: &amp;quot;Comic Sans MS&amp;quot;; font-size: 15.2778px;&quot;&gt;&lt;sub&gt;C3&lt;/sub&gt;&lt;/span&gt;&lt;span style=&quot;font-size: 22px; font-family: &amp;quot;Comic Sans MS&amp;quot;;&quot;&gt;, π&lt;/span&gt;&lt;span style=&quot;font-family: &amp;quot;Comic Sans MS&amp;quot;;&quot;&gt;&lt;font style=&quot;font-size: 16px;&quot;&gt;&lt;sub&gt;C4&lt;/sub&gt;&lt;/font&gt;&lt;/span&gt;&lt;span style=&quot;font-size: 22px; font-family: &amp;quot;Comic Sans MS&amp;quot;;&quot;&gt;}&lt;/span&gt;&lt;/font&gt;" style="shape=hexagon;perimeter=hexagonPerimeter2;whiteSpace=wrap;html=1;fixedSize=1;strokeWidth=2;fillColor=#dae8fc;strokeColor=#6c8ebf;" vertex="1" parent="1">
          <mxGeometry x="550" y="160" width="260" height="80" as="geometry" />
        </mxCell>
        <mxCell id="N2er4lR7cpUkSej4eWRc-5" value="&lt;font face=&quot;Comic Sans MS&quot; style=&quot;font-size: 18px;&quot;&gt;C&lt;sub style=&quot;&quot;&gt;&lt;font style=&quot;&quot;&gt;1&lt;/font&gt;&lt;/sub&gt;&amp;nbsp;,&lt;sub style=&quot;&quot;&gt;&amp;nbsp;&lt;/sub&gt;{π&lt;sub style=&quot;&quot;&gt;&lt;font style=&quot;&quot;&gt;1&lt;/font&gt;&lt;/sub&gt;, ..., π&lt;sub style=&quot;&quot;&gt;&lt;font style=&quot;&quot;&gt;b&lt;/font&gt;&lt;/sub&gt;}&lt;/font&gt;" style="shape=hexagon;perimeter=hexagonPerimeter2;whiteSpace=wrap;html=1;fixedSize=1;strokeWidth=2;fillColor=#dae8fc;strokeColor=#6c8ebf;" vertex="1" parent="1">
          <mxGeometry x="200" y="320" width="180" height="80" as="geometry" />
        </mxCell>
        <mxCell id="N2er4lR7cpUkSej4eWRc-6" value="&lt;font style=&quot;font-size: 18px;&quot;&gt;&lt;span style=&quot;font-family: &amp;quot;Comic Sans MS&amp;quot;;&quot;&gt;C&lt;/span&gt;&lt;sub style=&quot;font-family: &amp;quot;Comic Sans MS&amp;quot;;&quot;&gt;&lt;font style=&quot;&quot;&gt;2&lt;/font&gt;&lt;/sub&gt;&lt;span style=&quot;font-family: &amp;quot;Comic Sans MS&amp;quot;;&quot;&gt;&amp;nbsp;,&lt;/span&gt;&lt;sub style=&quot;font-family: &amp;quot;Comic Sans MS&amp;quot;;&quot;&gt;&amp;nbsp;&lt;/sub&gt;&lt;span style=&quot;font-family: &amp;quot;Comic Sans MS&amp;quot;;&quot;&gt;{π&lt;/span&gt;&lt;sub style=&quot;font-family: &amp;quot;Comic Sans MS&amp;quot;;&quot;&gt;&lt;font style=&quot;&quot;&gt;b+1&lt;/font&gt;&lt;/sub&gt;&lt;span style=&quot;font-family: &amp;quot;Comic Sans MS&amp;quot;;&quot;&gt;, ..., π&lt;/span&gt;&lt;sub style=&quot;font-family: &amp;quot;Comic Sans MS&amp;quot;;&quot;&gt;&lt;font style=&quot;&quot;&gt;2b&lt;/font&gt;&lt;/sub&gt;&lt;span style=&quot;font-family: &amp;quot;Comic Sans MS&amp;quot;;&quot;&gt;}&lt;/span&gt;&lt;/font&gt;" style="shape=hexagon;perimeter=hexagonPerimeter2;whiteSpace=wrap;html=1;fixedSize=1;strokeWidth=2;fillColor=#dae8fc;strokeColor=#6c8ebf;" vertex="1" parent="1">
          <mxGeometry x="460" y="320" width="180" height="80" as="geometry" />
        </mxCell>
        <mxCell id="N2er4lR7cpUkSej4eWRc-7" value="&lt;font style=&quot;font-size: 18px;&quot;&gt;&lt;span style=&quot;font-family: &amp;quot;Comic Sans MS&amp;quot;;&quot;&gt;C&lt;/span&gt;&lt;sub style=&quot;font-family: &amp;quot;Comic Sans MS&amp;quot;;&quot;&gt;3&lt;/sub&gt;&lt;span style=&quot;font-family: &amp;quot;Comic Sans MS&amp;quot;;&quot;&gt;&amp;nbsp;,&lt;/span&gt;&lt;sub style=&quot;font-family: &amp;quot;Comic Sans MS&amp;quot;;&quot;&gt;&amp;nbsp;&lt;/sub&gt;&lt;span style=&quot;font-family: &amp;quot;Comic Sans MS&amp;quot;;&quot;&gt;{π&lt;/span&gt;&lt;sub style=&quot;font-family: &amp;quot;Comic Sans MS&amp;quot;;&quot;&gt;2b+1&lt;/sub&gt;&lt;span style=&quot;font-family: &amp;quot;Comic Sans MS&amp;quot;;&quot;&gt;, ..., π&lt;/span&gt;&lt;sub style=&quot;font-family: &amp;quot;Comic Sans MS&amp;quot;;&quot;&gt;3b&lt;/sub&gt;&lt;span style=&quot;font-family: &amp;quot;Comic Sans MS&amp;quot;;&quot;&gt;}&lt;/span&gt;&lt;/font&gt;" style="shape=hexagon;perimeter=hexagonPerimeter2;whiteSpace=wrap;html=1;fixedSize=1;strokeWidth=2;fillColor=#dae8fc;strokeColor=#6c8ebf;" vertex="1" parent="1">
          <mxGeometry x="720" y="320" width="180" height="80" as="geometry" />
        </mxCell>
        <mxCell id="N2er4lR7cpUkSej4eWRc-8" value="&lt;font style=&quot;&quot;&gt;&lt;span style=&quot;font-size: 18px; font-family: &amp;quot;Comic Sans MS&amp;quot;;&quot;&gt;C&lt;/span&gt;&lt;sub style=&quot;font-family: &amp;quot;Comic Sans MS&amp;quot;;&quot;&gt;&lt;font style=&quot;font-size: 15px;&quot;&gt;4&lt;/font&gt;&lt;/sub&gt;&lt;span style=&quot;font-size: 18px; font-family: &amp;quot;Comic Sans MS&amp;quot;;&quot;&gt;&amp;nbsp;,&lt;/span&gt;&lt;sub style=&quot;font-size: 18px; font-family: &amp;quot;Comic Sans MS&amp;quot;;&quot;&gt;&amp;nbsp;&lt;/sub&gt;&lt;span style=&quot;font-size: 18px; font-family: &amp;quot;Comic Sans MS&amp;quot;;&quot;&gt;{π&lt;/span&gt;&lt;span style=&quot;font-size: 18px; font-family: &amp;quot;Comic Sans MS&amp;quot;;&quot;&gt;&lt;sub&gt;3b+1&lt;/sub&gt;&lt;/span&gt;&lt;span style=&quot;font-family: &amp;quot;Comic Sans MS&amp;quot;;&quot;&gt;&lt;span style=&quot;font-size: 18px;&quot;&gt;, ..., π&lt;/span&gt;&lt;sub style=&quot;&quot;&gt;&lt;font style=&quot;font-size: 15px;&quot;&gt;n&lt;/font&gt;&lt;/sub&gt;&lt;/span&gt;&lt;span style=&quot;font-size: 18px; font-family: &amp;quot;Comic Sans MS&amp;quot;;&quot;&gt;}&lt;/span&gt;&lt;/font&gt;" style="shape=hexagon;perimeter=hexagonPerimeter2;whiteSpace=wrap;html=1;fixedSize=1;strokeWidth=2;fillColor=#dae8fc;strokeColor=#6c8ebf;" vertex="1" parent="1">
          <mxGeometry x="980" y="320" width="180" height="80" as="geometry" />
        </mxCell>
        <mxCell id="N2er4lR7cpUkSej4eWRc-9" value="&lt;font style=&quot;color: rgb(255, 0, 0);&quot;&gt;d&lt;sub&gt;1&lt;/sub&gt;&lt;/font&gt;" style="text;strokeColor=none;fillColor=none;html=1;fontSize=24;fontStyle=2;verticalAlign=middle;align=center;fontFamily=Comic Sans MS;" vertex="1" parent="1">
          <mxGeometry x="220" y="440" width="30" height="40" as="geometry" />
        </mxCell>
        <mxCell id="N2er4lR7cpUkSej4eWRc-10" value="&lt;font color=&quot;#ff0000&quot;&gt;...&lt;/font&gt;" style="text;strokeColor=none;fillColor=none;html=1;fontSize=24;fontStyle=2;verticalAlign=middle;align=center;fontFamily=Comic Sans MS;" vertex="1" parent="1">
          <mxGeometry x="275" y="440" width="30" height="40" as="geometry" />
        </mxCell>
        <mxCell id="N2er4lR7cpUkSej4eWRc-11" value="&lt;font style=&quot;color: rgb(255, 0, 0);&quot;&gt;d&lt;span style=&quot;font-size: 16.6667px;&quot;&gt;&lt;sub&gt;b&lt;/sub&gt;&lt;/span&gt;&lt;/font&gt;" style="text;strokeColor=none;fillColor=none;html=1;fontSize=24;fontStyle=2;verticalAlign=middle;align=center;fontFamily=Comic Sans MS;" vertex="1" parent="1">
          <mxGeometry x="330" y="440" width="30" height="40" as="geometry" />
        </mxCell>
        <mxCell id="N2er4lR7cpUkSej4eWRc-12" value="&lt;font style=&quot;color: rgb(255, 0, 0);&quot;&gt;d&lt;span style=&quot;font-size: 20px;&quot;&gt;&lt;sub&gt;b+1&lt;/sub&gt;&lt;/span&gt;&lt;/font&gt;" style="text;strokeColor=none;fillColor=none;html=1;fontSize=24;fontStyle=2;verticalAlign=middle;align=center;fontFamily=Comic Sans MS;" vertex="1" parent="1">
          <mxGeometry x="480" y="440" width="30" height="40" as="geometry" />
        </mxCell>
        <mxCell id="N2er4lR7cpUkSej4eWRc-13" value="&lt;font color=&quot;#ff0000&quot;&gt;...&lt;/font&gt;" style="text;strokeColor=none;fillColor=none;html=1;fontSize=24;fontStyle=2;verticalAlign=middle;align=center;fontFamily=Comic Sans MS;" vertex="1" parent="1">
          <mxGeometry x="535" y="440" width="30" height="40" as="geometry" />
        </mxCell>
        <mxCell id="N2er4lR7cpUkSej4eWRc-14" value="&lt;font style=&quot;color: rgb(255, 0, 0);&quot;&gt;d&lt;sub&gt;2&lt;span style=&quot;font-size: 13.8889px;&quot;&gt;b&lt;/span&gt;&lt;/sub&gt;&lt;/font&gt;" style="text;strokeColor=none;fillColor=none;html=1;fontSize=24;fontStyle=2;verticalAlign=middle;align=center;fontFamily=Comic Sans MS;" vertex="1" parent="1">
          <mxGeometry x="590" y="440" width="30" height="40" as="geometry" />
        </mxCell>
        <mxCell id="N2er4lR7cpUkSej4eWRc-15" value="&lt;font style=&quot;color: rgb(255, 0, 0);&quot;&gt;d&lt;span style=&quot;font-size: 16.6667px;&quot;&gt;&lt;sub&gt;2b+1&lt;/sub&gt;&lt;/span&gt;&lt;/font&gt;" style="text;strokeColor=none;fillColor=none;html=1;fontSize=24;fontStyle=2;verticalAlign=middle;align=center;fontFamily=Comic Sans MS;" vertex="1" parent="1">
          <mxGeometry x="740" y="440" width="30" height="40" as="geometry" />
        </mxCell>
        <mxCell id="N2er4lR7cpUkSej4eWRc-16" value="&lt;font color=&quot;#ff0000&quot;&gt;...&lt;/font&gt;" style="text;strokeColor=none;fillColor=none;html=1;fontSize=24;fontStyle=2;verticalAlign=middle;align=center;fontFamily=Comic Sans MS;" vertex="1" parent="1">
          <mxGeometry x="795" y="440" width="30" height="40" as="geometry" />
        </mxCell>
        <mxCell id="N2er4lR7cpUkSej4eWRc-17" value="&lt;font style=&quot;color: rgb(255, 0, 0);&quot;&gt;d&lt;span style=&quot;font-size: 13.8889px;&quot;&gt;&lt;sub&gt;3b&lt;/sub&gt;&lt;/span&gt;&lt;/font&gt;" style="text;strokeColor=none;fillColor=none;html=1;fontSize=24;fontStyle=2;verticalAlign=middle;align=center;fontFamily=Comic Sans MS;" vertex="1" parent="1">
          <mxGeometry x="850" y="440" width="30" height="40" as="geometry" />
        </mxCell>
        <mxCell id="N2er4lR7cpUkSej4eWRc-18" value="&lt;font style=&quot;color: rgb(255, 0, 0);&quot;&gt;d&lt;span style=&quot;font-size: 20px;&quot;&gt;&lt;sub&gt;3b+1&lt;/sub&gt;&lt;/span&gt;&lt;/font&gt;" style="text;strokeColor=none;fillColor=none;html=1;fontSize=24;fontStyle=2;verticalAlign=middle;align=center;fontFamily=Comic Sans MS;" vertex="1" parent="1">
          <mxGeometry x="1000" y="440" width="30" height="40" as="geometry" />
        </mxCell>
        <mxCell id="N2er4lR7cpUkSej4eWRc-19" value="&lt;font color=&quot;#ff0000&quot;&gt;...&lt;/font&gt;" style="text;strokeColor=none;fillColor=none;html=1;fontSize=24;fontStyle=2;verticalAlign=middle;align=center;fontFamily=Comic Sans MS;" vertex="1" parent="1">
          <mxGeometry x="1055" y="440" width="30" height="40" as="geometry" />
        </mxCell>
        <mxCell id="N2er4lR7cpUkSej4eWRc-20" value="&lt;font style=&quot;color: rgb(255, 0, 0);&quot;&gt;d&lt;span style=&quot;font-size: 13.8889px;&quot;&gt;&lt;sub&gt;n&lt;/sub&gt;&lt;/span&gt;&lt;/font&gt;" style="text;strokeColor=none;fillColor=none;html=1;fontSize=24;fontStyle=2;verticalAlign=middle;align=center;fontFamily=Comic Sans MS;" vertex="1" parent="1">
          <mxGeometry x="1110" y="440" width="30" height="40" as="geometry" />
        </mxCell>
        <mxCell id="N2er4lR7cpUkSej4eWRc-21" value="" style="endArrow=classic;html=1;rounded=0;exitX=0.5;exitY=1;exitDx=0;exitDy=0;entryX=0.5;entryY=0;entryDx=0;entryDy=0;strokeWidth=2;" edge="1" parent="1" source="N2er4lR7cpUkSej4eWRc-5" target="N2er4lR7cpUkSej4eWRc-10">
          <mxGeometry width="50" height="50" relative="1" as="geometry">
            <mxPoint x="700" y="410" as="sourcePoint" />
            <mxPoint x="750" y="360" as="targetPoint" />
          </mxGeometry>
        </mxCell>
        <mxCell id="N2er4lR7cpUkSej4eWRc-22" value="" style="endArrow=classic;html=1;rounded=0;exitX=0.5;exitY=1;exitDx=0;exitDy=0;entryX=0.5;entryY=0;entryDx=0;entryDy=0;strokeWidth=2;" edge="1" parent="1" source="N2er4lR7cpUkSej4eWRc-6" target="N2er4lR7cpUkSej4eWRc-13">
          <mxGeometry width="50" height="50" relative="1" as="geometry">
            <mxPoint x="300" y="410" as="sourcePoint" />
            <mxPoint x="300" y="450" as="targetPoint" />
          </mxGeometry>
        </mxCell>
        <mxCell id="N2er4lR7cpUkSej4eWRc-23" value="" style="endArrow=classic;html=1;rounded=0;exitX=0.5;exitY=1;exitDx=0;exitDy=0;entryX=0.5;entryY=0;entryDx=0;entryDy=0;strokeWidth=2;" edge="1" parent="1" source="N2er4lR7cpUkSej4eWRc-7" target="N2er4lR7cpUkSej4eWRc-16">
          <mxGeometry width="50" height="50" relative="1" as="geometry">
            <mxPoint x="310" y="420" as="sourcePoint" />
            <mxPoint x="310" y="460" as="targetPoint" />
          </mxGeometry>
        </mxCell>
        <mxCell id="N2er4lR7cpUkSej4eWRc-24" value="" style="endArrow=classic;html=1;rounded=0;exitX=0.5;exitY=1;exitDx=0;exitDy=0;entryX=0.5;entryY=0;entryDx=0;entryDy=0;strokeWidth=2;" edge="1" parent="1" source="N2er4lR7cpUkSej4eWRc-8" target="N2er4lR7cpUkSej4eWRc-19">
          <mxGeometry width="50" height="50" relative="1" as="geometry">
            <mxPoint x="320" y="430" as="sourcePoint" />
            <mxPoint x="320" y="470" as="targetPoint" />
          </mxGeometry>
        </mxCell>
        <mxCell id="N2er4lR7cpUkSej4eWRc-26" value="" style="endArrow=none;html=1;rounded=0;exitX=0.5;exitY=0;exitDx=0;exitDy=0;entryX=0.5;entryY=1;entryDx=0;entryDy=0;strokeWidth=2;" edge="1" parent="1" source="N2er4lR7cpUkSej4eWRc-5" target="N2er4lR7cpUkSej4eWRc-2">
          <mxGeometry width="50" height="50" relative="1" as="geometry">
            <mxPoint x="600" y="310" as="sourcePoint" />
            <mxPoint x="650" y="260" as="targetPoint" />
            <Array as="points">
              <mxPoint x="290" y="280" />
              <mxPoint x="680" y="280" />
            </Array>
          </mxGeometry>
        </mxCell>
        <mxCell id="N2er4lR7cpUkSej4eWRc-27" value="" style="endArrow=none;html=1;rounded=0;exitX=0.5;exitY=0;exitDx=0;exitDy=0;entryX=0.5;entryY=1;entryDx=0;entryDy=0;strokeWidth=2;" edge="1" parent="1" source="N2er4lR7cpUkSej4eWRc-6" target="N2er4lR7cpUkSej4eWRc-2">
          <mxGeometry width="50" height="50" relative="1" as="geometry">
            <mxPoint x="600" y="310" as="sourcePoint" />
            <mxPoint x="650" y="260" as="targetPoint" />
            <Array as="points">
              <mxPoint x="550" y="280" />
              <mxPoint x="680" y="280" />
            </Array>
          </mxGeometry>
        </mxCell>
        <mxCell id="N2er4lR7cpUkSej4eWRc-28" value="" style="endArrow=none;html=1;rounded=0;entryX=0.5;entryY=1;entryDx=0;entryDy=0;exitX=0.5;exitY=0;exitDx=0;exitDy=0;strokeWidth=2;" edge="1" parent="1" source="N2er4lR7cpUkSej4eWRc-7" target="N2er4lR7cpUkSej4eWRc-2">
          <mxGeometry width="50" height="50" relative="1" as="geometry">
            <mxPoint x="600" y="310" as="sourcePoint" />
            <mxPoint x="650" y="260" as="targetPoint" />
            <Array as="points">
              <mxPoint x="810" y="280" />
              <mxPoint x="680" y="280" />
            </Array>
          </mxGeometry>
        </mxCell>
        <mxCell id="N2er4lR7cpUkSej4eWRc-30" value="" style="endArrow=none;html=1;rounded=0;entryX=0.5;entryY=1;entryDx=0;entryDy=0;exitX=0.5;exitY=0;exitDx=0;exitDy=0;strokeWidth=2;" edge="1" parent="1" source="N2er4lR7cpUkSej4eWRc-8" target="N2er4lR7cpUkSej4eWRc-2">
          <mxGeometry width="50" height="50" relative="1" as="geometry">
            <mxPoint x="600" y="310" as="sourcePoint" />
            <mxPoint x="650" y="260" as="targetPoint" />
            <Array as="points">
              <mxPoint x="1070" y="280" />
              <mxPoint x="680" y="280" />
            </Array>
          </mxGeometry>
        </mxCell>
      </root>
    </mxGraphModel>
  </diagram>
</mxfile>
